<mxfile host="Electron" modified="2023-09-28T09:10:25.969Z" agent="Mozilla/5.0 (Windows NT 10.0; Win64; x64) AppleWebKit/537.36 (KHTML, like Gecko) draw.io/21.7.5 Chrome/114.0.5735.289 Electron/25.8.1 Safari/537.36" etag="NfNmZlasBKjbHOSBiV6L" version="21.7.5" type="device">
  <diagram name="Page-1" id="VwWqpEZCl3_MJg4LyqSk">
    <mxGraphModel dx="1430" dy="830" grid="1" gridSize="10" guides="1" tooltips="1" connect="1" arrows="1" fold="1" page="0" pageScale="1" pageWidth="850" pageHeight="1100" math="0" shadow="0">
      <root>
        <mxCell id="0" />
        <mxCell id="1" parent="0" />
        <mxCell id="5fjFAM3YcPxMmBqlMnJW-9" value="" style="rounded=0;whiteSpace=wrap;html=1;" parent="1" vertex="1">
          <mxGeometry y="120" width="960" height="680" as="geometry" />
        </mxCell>
        <mxCell id="5DMnv8la4XE6s-sfl3l8-34" value="" style="endArrow=none;dashed=1;html=1;rounded=0;entryX=0.5;entryY=1;entryDx=0;entryDy=0;fillColor=#fff2cc;strokeColor=#d6b656;" parent="1" edge="1">
          <mxGeometry width="50" height="50" relative="1" as="geometry">
            <mxPoint x="339.98999999999995" y="760" as="sourcePoint" />
            <mxPoint x="339.71" y="220" as="targetPoint" />
          </mxGeometry>
        </mxCell>
        <mxCell id="9jVZdD6yZtyIO2AFlomi-15" value="" style="endArrow=none;dashed=1;html=1;rounded=0;entryX=0.5;entryY=1;entryDx=0;entryDy=0;fillColor=#d5e8d4;strokeColor=#82b366;" parent="1" edge="1">
          <mxGeometry width="50" height="50" relative="1" as="geometry">
            <mxPoint x="660" y="760" as="sourcePoint" />
            <mxPoint x="659.72" y="220" as="targetPoint" />
          </mxGeometry>
        </mxCell>
        <mxCell id="5DMnv8la4XE6s-sfl3l8-31" value="" style="endArrow=none;dashed=1;html=1;rounded=0;entryX=0.5;entryY=1;entryDx=0;entryDy=0;fillColor=#dae8fc;strokeColor=#6c8ebf;" parent="1" edge="1">
          <mxGeometry width="50" height="50" relative="1" as="geometry">
            <mxPoint x="500.91999999999996" y="760" as="sourcePoint" />
            <mxPoint x="500.64" y="220" as="targetPoint" />
          </mxGeometry>
        </mxCell>
        <mxCell id="5DMnv8la4XE6s-sfl3l8-32" value="" style="endArrow=none;dashed=1;html=1;rounded=0;entryX=0.5;entryY=1;entryDx=0;entryDy=0;fillColor=#e1d5e7;strokeColor=#9673a6;" parent="1" edge="1">
          <mxGeometry width="50" height="50" relative="1" as="geometry">
            <mxPoint x="819.99" y="760" as="sourcePoint" />
            <mxPoint x="819.71" y="220" as="targetPoint" />
          </mxGeometry>
        </mxCell>
        <mxCell id="5DMnv8la4XE6s-sfl3l8-33" value="" style="endArrow=none;dashed=1;html=1;rounded=0;entryX=0.5;entryY=1;entryDx=0;entryDy=0;fillColor=#ffe6cc;strokeColor=#d79b00;" parent="1" edge="1">
          <mxGeometry width="50" height="50" relative="1" as="geometry">
            <mxPoint x="179.98999999999995" y="760" as="sourcePoint" />
            <mxPoint x="179.70999999999998" y="220" as="targetPoint" />
          </mxGeometry>
        </mxCell>
        <mxCell id="9jVZdD6yZtyIO2AFlomi-1" value="AMC Main Task" style="rounded=0;whiteSpace=wrap;html=1;fillColor=#ffe6cc;strokeColor=#d79b00;" parent="1" vertex="1">
          <mxGeometry x="120" y="160" width="120" height="60" as="geometry" />
        </mxCell>
        <mxCell id="9jVZdD6yZtyIO2AFlomi-2" value="ASC Proxy" style="rounded=0;whiteSpace=wrap;html=1;fillColor=#fff2cc;strokeColor=#d6b656;" parent="1" vertex="1">
          <mxGeometry x="280" y="160" width="120" height="60" as="geometry" />
        </mxCell>
        <mxCell id="9jVZdD6yZtyIO2AFlomi-3" value="OSAL" style="rounded=0;whiteSpace=wrap;html=1;fillColor=#d5e8d4;strokeColor=#82b366;" parent="1" vertex="1">
          <mxGeometry x="600" y="160" width="120" height="60" as="geometry" />
        </mxCell>
        <mxCell id="9jVZdD6yZtyIO2AFlomi-4" value="FAL" style="rounded=0;whiteSpace=wrap;html=1;fillColor=#dae8fc;strokeColor=#6c8ebf;" parent="1" vertex="1">
          <mxGeometry x="440" y="160" width="120" height="60" as="geometry" />
        </mxCell>
        <mxCell id="9jVZdD6yZtyIO2AFlomi-5" value="" style="rounded=0;whiteSpace=wrap;html=1;fillColor=#ffe6cc;strokeColor=#d79b00;" parent="1" vertex="1">
          <mxGeometry x="170" y="260" width="20" height="440" as="geometry" />
        </mxCell>
        <mxCell id="9jVZdD6yZtyIO2AFlomi-10" value="" style="rounded=0;whiteSpace=wrap;html=1;fillColor=#fff2cc;strokeColor=#d6b656;" parent="1" vertex="1">
          <mxGeometry x="330" y="260" width="20" height="440" as="geometry" />
        </mxCell>
        <mxCell id="9jVZdD6yZtyIO2AFlomi-11" value="" style="rounded=0;whiteSpace=wrap;html=1;fillColor=#dae8fc;strokeColor=#6c8ebf;" parent="1" vertex="1">
          <mxGeometry x="490" y="295" width="20" height="100" as="geometry" />
        </mxCell>
        <mxCell id="9jVZdD6yZtyIO2AFlomi-12" value="" style="rounded=0;whiteSpace=wrap;html=1;fillColor=#d5e8d4;strokeColor=#82b366;" parent="1" vertex="1">
          <mxGeometry x="650" y="395" width="20" height="165" as="geometry" />
        </mxCell>
        <mxCell id="5DMnv8la4XE6s-sfl3l8-1" value="" style="endArrow=classic;html=1;rounded=0;shadow=0;" parent="1" edge="1">
          <mxGeometry width="50" height="50" relative="1" as="geometry">
            <mxPoint x="40" y="260" as="sourcePoint" />
            <mxPoint x="170" y="260" as="targetPoint" />
          </mxGeometry>
        </mxCell>
        <mxCell id="5DMnv8la4XE6s-sfl3l8-4" value="&lt;font style=&quot;font-size: 10px;&quot;&gt;iInitProxies()&lt;/font&gt;" style="text;html=1;align=left;verticalAlign=middle;resizable=0;points=[];autosize=1;strokeColor=none;fillColor=none;" parent="1" vertex="1">
          <mxGeometry x="40" y="230" width="80" height="30" as="geometry" />
        </mxCell>
        <mxCell id="5DMnv8la4XE6s-sfl3l8-9" value="" style="endArrow=classic;html=1;rounded=0;shadow=0;entryX=-0.025;entryY=0.046;entryDx=0;entryDy=0;entryPerimeter=0;" parent="1" edge="1">
          <mxGeometry width="50" height="50" relative="1" as="geometry">
            <mxPoint x="190" y="290" as="sourcePoint" />
            <mxPoint x="329.5" y="290.24" as="targetPoint" />
          </mxGeometry>
        </mxCell>
        <mxCell id="5DMnv8la4XE6s-sfl3l8-10" value="&lt;font style=&quot;font-size: 10px;&quot;&gt;iASC_Initialise()&lt;/font&gt;" style="text;html=1;align=center;verticalAlign=middle;resizable=0;points=[];autosize=1;strokeColor=none;fillColor=none;" parent="1" vertex="1">
          <mxGeometry x="215" y="260" width="90" height="30" as="geometry" />
        </mxCell>
        <mxCell id="5DMnv8la4XE6s-sfl3l8-13" value="" style="endArrow=classic;html=1;rounded=0;shadow=0;entryX=-0.025;entryY=0.046;entryDx=0;entryDy=0;entryPerimeter=0;" parent="1" edge="1">
          <mxGeometry width="50" height="50" relative="1" as="geometry">
            <mxPoint x="190" y="620" as="sourcePoint" />
            <mxPoint x="330" y="620" as="targetPoint" />
          </mxGeometry>
        </mxCell>
        <mxCell id="5DMnv8la4XE6s-sfl3l8-14" value="&lt;font style=&quot;font-size: 10px;&quot;&gt;iASC_BindCallback()&lt;/font&gt;" style="text;html=1;align=center;verticalAlign=middle;resizable=0;points=[];autosize=1;strokeColor=none;fillColor=none;" parent="1" vertex="1">
          <mxGeometry x="200" y="590" width="120" height="30" as="geometry" />
        </mxCell>
        <mxCell id="5DMnv8la4XE6s-sfl3l8-18" value="" style="endArrow=classic;html=1;rounded=0;shadow=0;entryX=-0.064;entryY=0.113;entryDx=0;entryDy=0;entryPerimeter=0;exitX=1.002;exitY=0.113;exitDx=0;exitDy=0;exitPerimeter=0;" parent="1" edge="1">
          <mxGeometry width="50" height="50" relative="1" as="geometry">
            <mxPoint x="350.67999999999995" y="434.72" as="sourcePoint" />
            <mxPoint x="649.3599999999998" y="434.72" as="targetPoint" />
          </mxGeometry>
        </mxCell>
        <mxCell id="5DMnv8la4XE6s-sfl3l8-19" value="&lt;font style=&quot;font-size: 10px;&quot;&gt;iOSAL_Mutex_Create()&lt;/font&gt;" style="text;html=1;align=center;verticalAlign=middle;resizable=0;points=[];autosize=1;strokeColor=none;fillColor=none;" parent="1" vertex="1">
          <mxGeometry x="360.64" y="405" width="130" height="30" as="geometry" />
        </mxCell>
        <mxCell id="5DMnv8la4XE6s-sfl3l8-22" value="" style="endArrow=classic;html=1;rounded=0;shadow=0;exitX=1.002;exitY=0.113;exitDx=0;exitDy=0;exitPerimeter=0;dashed=1;" parent="1" edge="1">
          <mxGeometry width="50" height="50" relative="1" as="geometry">
            <mxPoint x="650" y="465" as="sourcePoint" />
            <mxPoint x="350" y="466" as="targetPoint" />
          </mxGeometry>
        </mxCell>
        <mxCell id="5DMnv8la4XE6s-sfl3l8-24" value="" style="endArrow=classic;html=1;rounded=0;shadow=0;entryX=-0.064;entryY=0.113;entryDx=0;entryDy=0;entryPerimeter=0;exitX=1.002;exitY=0.113;exitDx=0;exitDy=0;exitPerimeter=0;" parent="1" edge="1">
          <mxGeometry width="50" height="50" relative="1" as="geometry">
            <mxPoint x="351.31999999999994" y="504.31000000000006" as="sourcePoint" />
            <mxPoint x="649.9999999999998" y="504.31000000000006" as="targetPoint" />
          </mxGeometry>
        </mxCell>
        <mxCell id="5DMnv8la4XE6s-sfl3l8-25" value="&lt;font style=&quot;font-size: 10px;&quot;&gt;iOSAL_Task_Create()&lt;/font&gt;" style="text;html=1;align=center;verticalAlign=middle;resizable=0;points=[];autosize=1;strokeColor=none;fillColor=none;" parent="1" vertex="1">
          <mxGeometry x="360" y="475.00000000000006" width="120" height="30" as="geometry" />
        </mxCell>
        <mxCell id="5DMnv8la4XE6s-sfl3l8-26" value="" style="endArrow=classic;html=1;rounded=0;shadow=0;exitX=1.002;exitY=0.113;exitDx=0;exitDy=0;exitPerimeter=0;dashed=1;" parent="1" edge="1">
          <mxGeometry width="50" height="50" relative="1" as="geometry">
            <mxPoint x="650" y="535" as="sourcePoint" />
            <mxPoint x="350" y="536" as="targetPoint" />
          </mxGeometry>
        </mxCell>
        <mxCell id="5DMnv8la4XE6s-sfl3l8-28" value="EVL" style="rounded=0;whiteSpace=wrap;html=1;fillColor=#e1d5e7;strokeColor=#9673a6;" parent="1" vertex="1">
          <mxGeometry x="760" y="160" width="120" height="60" as="geometry" />
        </mxCell>
        <mxCell id="5DMnv8la4XE6s-sfl3l8-29" value="" style="rounded=0;whiteSpace=wrap;html=1;fillColor=#e1d5e7;strokeColor=#9673a6;" parent="1" vertex="1">
          <mxGeometry x="810" y="620" width="20" height="80" as="geometry" />
        </mxCell>
        <mxCell id="5DMnv8la4XE6s-sfl3l8-35" value="" style="endArrow=classic;html=1;rounded=0;shadow=0;exitX=1.002;exitY=0.113;exitDx=0;exitDy=0;exitPerimeter=0;entryX=0;entryY=0.25;entryDx=0;entryDy=0;" parent="1" target="5DMnv8la4XE6s-sfl3l8-29" edge="1">
          <mxGeometry width="50" height="50" relative="1" as="geometry">
            <mxPoint x="349.99999999999994" y="640" as="sourcePoint" />
            <mxPoint x="700" y="640" as="targetPoint" />
          </mxGeometry>
        </mxCell>
        <mxCell id="5DMnv8la4XE6s-sfl3l8-37" value="&lt;font style=&quot;font-size: 10px;&quot;&gt;iEVL_BindCallback()&lt;/font&gt;" style="text;html=1;align=center;verticalAlign=middle;resizable=0;points=[];autosize=1;strokeColor=none;fillColor=none;" parent="1" vertex="1">
          <mxGeometry x="355" y="610" width="120" height="30" as="geometry" />
        </mxCell>
        <mxCell id="5DMnv8la4XE6s-sfl3l8-38" value="" style="endArrow=classic;html=1;rounded=0;shadow=0;exitX=1.002;exitY=0.113;exitDx=0;exitDy=0;exitPerimeter=0;dashed=1;entryX=1.016;entryY=0.525;entryDx=0;entryDy=0;entryPerimeter=0;" parent="1" edge="1">
          <mxGeometry width="50" height="50" relative="1" as="geometry">
            <mxPoint x="810" y="670" as="sourcePoint" />
            <mxPoint x="350.31999999999994" y="671" as="targetPoint" />
          </mxGeometry>
        </mxCell>
        <mxCell id="5DMnv8la4XE6s-sfl3l8-39" value="&lt;font style=&quot;font-size: 10px;&quot;&gt;OK or ERROR&lt;/font&gt;" style="text;html=1;align=center;verticalAlign=middle;resizable=0;points=[];autosize=1;strokeColor=none;fillColor=none;" parent="1" vertex="1">
          <mxGeometry x="715" y="640" width="90" height="30" as="geometry" />
        </mxCell>
        <mxCell id="5DMnv8la4XE6s-sfl3l8-43" value="" style="endArrow=classic;html=1;rounded=0;shadow=0;exitX=1.002;exitY=0.113;exitDx=0;exitDy=0;exitPerimeter=0;" parent="1" edge="1">
          <mxGeometry width="50" height="50" relative="1" as="geometry">
            <mxPoint x="349.99999999999994" y="315" as="sourcePoint" />
            <mxPoint x="490" y="315" as="targetPoint" />
          </mxGeometry>
        </mxCell>
        <mxCell id="5DMnv8la4XE6s-sfl3l8-44" value="&lt;font style=&quot;font-size: 10px;&quot;&gt;pxThis-&amp;gt;pxFwIf-&amp;gt;open(&amp;nbsp;)&lt;/font&gt;" style="text;html=1;align=center;verticalAlign=middle;resizable=0;points=[];autosize=1;strokeColor=none;fillColor=none;" parent="1" vertex="1">
          <mxGeometry x="355" y="285" width="130" height="30" as="geometry" />
        </mxCell>
        <mxCell id="5DMnv8la4XE6s-sfl3l8-45" value="" style="endArrow=classic;html=1;rounded=0;shadow=0;exitX=1.002;exitY=0.113;exitDx=0;exitDy=0;exitPerimeter=0;dashed=1;entryX=0.005;entryY=1.009;entryDx=0;entryDy=0;entryPerimeter=0;" parent="1" target="5DMnv8la4XE6s-sfl3l8-48" edge="1">
          <mxGeometry width="50" height="50" relative="1" as="geometry">
            <mxPoint x="490" y="365" as="sourcePoint" />
            <mxPoint x="360" y="365" as="targetPoint" />
          </mxGeometry>
        </mxCell>
        <mxCell id="5DMnv8la4XE6s-sfl3l8-48" value="&lt;font style=&quot;font-size: 10px;&quot;&gt;FW_IF_ERRORS_NONE&lt;br&gt;or error code&lt;br&gt;&lt;/font&gt;" style="text;html=1;align=center;verticalAlign=middle;resizable=0;points=[];autosize=1;strokeColor=none;fillColor=none;" parent="1" vertex="1">
          <mxGeometry x="350" y="325" width="140" height="40" as="geometry" />
        </mxCell>
        <mxCell id="5fjFAM3YcPxMmBqlMnJW-3" value="" style="endArrow=classic;html=1;rounded=0;shadow=0;" parent="1" edge="1">
          <mxGeometry width="50" height="50" relative="1" as="geometry">
            <mxPoint x="350" y="560" as="sourcePoint" />
            <mxPoint x="360" y="590" as="targetPoint" />
            <Array as="points">
              <mxPoint x="420" y="560" />
              <mxPoint x="420" y="590" />
            </Array>
          </mxGeometry>
        </mxCell>
        <mxCell id="5fjFAM3YcPxMmBqlMnJW-5" value="&lt;font style=&quot;font-size: 10px;&quot;&gt;Allocate mem and copy sensor data&lt;/font&gt;" style="text;html=1;align=center;verticalAlign=middle;resizable=0;points=[];autosize=1;strokeColor=none;fillColor=none;" parent="1" vertex="1">
          <mxGeometry x="420" y="560" width="180" height="30" as="geometry" />
        </mxCell>
        <mxCell id="5fjFAM3YcPxMmBqlMnJW-6" value="&lt;font style=&quot;font-size: 10px;&quot;&gt;OSAL_ERRORS_NONE&amp;nbsp;or error code&lt;br&gt;&lt;/font&gt;" style="text;html=1;align=center;verticalAlign=middle;resizable=0;points=[];autosize=1;strokeColor=none;fillColor=none;" parent="1" vertex="1">
          <mxGeometry x="460" y="440" width="190" height="30" as="geometry" />
        </mxCell>
        <mxCell id="5fjFAM3YcPxMmBqlMnJW-7" value="&lt;font style=&quot;font-size: 10px;&quot;&gt;OSAL_ERRORS_NONE&amp;nbsp;or error code&lt;br&gt;&lt;/font&gt;" style="text;html=1;align=center;verticalAlign=middle;resizable=0;points=[];autosize=1;strokeColor=none;fillColor=none;" parent="1" vertex="1">
          <mxGeometry x="460" y="505" width="190" height="30" as="geometry" />
        </mxCell>
      </root>
    </mxGraphModel>
  </diagram>
</mxfile>
